<?xml version="1.0" encoding="UTF-8"?>
<!DOCTYPE svg PUBLIC "-//W3C//DTD SVG 1.1//EN" "http://www.w3.org/Graphics/SVG/1.1/DTD/svg11.dtd">
<!-- Creator: CorelDRAW X8 -->
<svg xmlns="http://www.w3.org/2000/svg" xml:space="preserve" width="215.9mm" height="279.4mm" version="1.1" style="shape-rendering:geometricPrecision; text-rendering:geometricPrecision; image-rendering:optimizeQuality; fill-rule:evenodd; clip-rule:evenodd"
viewBox="0 0 21590 27940"
 xmlns:xlink="http://www.w3.org/1999/xlink">
 <defs>
  <style type="text/css">
   <![CDATA[
    .fil0 {fill:#FEFEFE}
    .fil2 {fill:#C9C6E2}
    .fil3 {fill:#C8C5E2}
    .fil4 {fill:#C7C4E1}
    .fil5 {fill:#C6C3E1}
    .fil6 {fill:#C5C2E0}
    .fil7 {fill:#C4C1E0}
    .fil8 {fill:#C4C0DF}
    .fil9 {fill:#C3BFDF}
    .fil10 {fill:#C2BEDE}
    .fil11 {fill:#C1BDDE}
    .fil12 {fill:#C0BCDD}
    .fil13 {fill:#BFBCDD}
    .fil14 {fill:#BFBBDD}
    .fil15 {fill:#BEBADC}
    .fil16 {fill:#BDBADC}
    .fil17 {fill:#BDB9DC}
    .fil18 {fill:#BCB8DB}
    .fil19 {fill:#BBB8DB}
    .fil20 {fill:#BBB7DB}
    .fil21 {fill:#BBB6DA}
    .fil22 {fill:#BAB6DA}
    .fil23 {fill:#BAB5DA}
    .fil24 {fill:#B9B4D9}
    .fil25 {fill:#B8B4D9}
    .fil26 {fill:#B8B4D9}
    .fil27 {fill:#B7B3D8}
    .fil28 {fill:#B6B2D8}
    .fil29 {fill:#B6B2D8}
    .fil30 {fill:#B6B1D8}
    .fil31 {fill:#B5B1D7}
    .fil32 {fill:#B5B0D7}
    .fil33 {fill:#B4AFD7}
    .fil34 {fill:#B3AFD6}
    .fil35 {fill:#B3AED6}
    .fil36 {fill:#B2ADD6}
    .fil37 {fill:#B1ADD6}
    .fil38 {fill:#B1ACD5}
    .fil39 {fill:#B0ACD5}
    .fil40 {fill:#B0ABD5}
    .fil41 {fill:#B0ABD4}
    .fil42 {fill:#AFAAD4}
    .fil43 {fill:#AEAAD4}
    .fil44 {fill:#AEA9D3}
    .fil45 {fill:#ADA9D3}
    .fil46 {fill:#ADA8D3}
    .fil47 {fill:#ACA8D3}
    .fil48 {fill:#ACA7D2}
    .fil49 {fill:#ABA7D2}
    .fil50 {fill:#ACA6D2}
    .fil51 {fill:#ABA6D2}
    .fil52 {fill:#ABA5D1}
    .fil53 {fill:#AAA5D1}
    .fil54 {fill:#AAA5D1}
    .fil55 {fill:#A9A4D1}
    .fil56 {fill:#A9A4D0}
    .fil57 {fill:#A8A3D0}
    .fil58 {fill:#A8A3D0}
    .fil59 {fill:#A7A3D0}
    .fil60 {fill:#A8A2CF}
    .fil61 {fill:#A7A2CF}
    .fil62 {fill:#A7A1CF}
    .fil63 {fill:#A6A1CF}
    .fil64 {fill:#A6A0CE}
    .fil65 {fill:#A5A0CE}
    .fil66 {fill:#A5A0CE}
    .fil67 {fill:#A49FCE}
    .fil68 {fill:#A49FCD}
    .fil69 {fill:#A39ECD}
    .fil70 {fill:#A49ECD}
    .fil71 {fill:#A39ECD}
    .fil72 {fill:#A39DCC}
    .fil73 {fill:#A29DCC}
    .fil74 {fill:#A29CCC}
    .fil75 {fill:#A19CCC}
    .fil76 {fill:#A19BCC}
    .fil77 {fill:#A09BCB}
    .fil78 {fill:#A09BCB}
    .fil79 {fill:#A09ACB}
    .fil80 {fill:#A09ACB}
    .fil81 {fill:#9F9ACB}
    .fil82 {fill:#9F99CA}
    .fil83 {fill:#9E99CA}
    .fil84 {fill:#9E98CA}
    .fil85 {fill:#9D98CA}
    .fil86 {fill:#9D97C9}
    .fil87 {fill:#9D97C9}
    .fil88 {fill:#9D97C9}
    .fil89 {fill:#9C96C9}
    .fil90 {fill:#9C96C8}
    .fil91 {fill:#9B96C8}
    .fil92 {fill:#9B95C8}
    .fil93 {fill:#9A95C8}
    .fil94 {fill:#9A94C7}
    .fil95 {fill:#9A94C7}
    .fil96 {fill:#9A94C7}
    .fil97 {fill:#9993C7}
    .fil98 {fill:#9993C7}
    .fil99 {fill:#9893C7}
    .fil100 {fill:#9892C6}
    .fil101 {fill:#9792C6}
    .fil102 {fill:#9791C6}
    .fil103 {fill:#9791C6}
    .fil104 {fill:#9791C5}
    .fil105 {fill:#9690C5}
    .fil106 {fill:#9690C5}
    .fil107 {fill:#9590C5}
    .fil108 {fill:#958FC4}
    .fil109 {fill:#948FC4}
    .fil110 {fill:#958EC4}
    .fil111 {fill:#948EC4}
    .fil112 {fill:#948EC4}
    .fil113 {fill:#938DC4}
    .fil114 {fill:#938DC3}
    .fil115 {fill:#928DC3}
    .fil116 {fill:#928CC3}
    .fil117 {fill:#928CC3}
    .fil118 {fill:#928BC2}
    .fil119 {fill:#918BC2}
    .fil120 {fill:#918BC2}
    .fil121 {fill:#908BC2}
    .fil122 {fill:#908AC2}
    .fil123 {fill:#908AC1}
    .fil124 {fill:#9089C1}
    .fil125 {fill:#8F89C1}
    .fil126 {fill:#8F89C1}
    .fil127 {fill:#8E88C1}
    .fil128 {fill:#8D88C0}
    .fil129 {fill:#8E87C0}
    .fil130 {fill:#8D87C0}
    .fil131 {fill:#8C86BF}
    .fil132 {fill:#8C86BF}
    .fil133 {fill:#8B86BF}
    .fil134 {fill:#8B85BF}
    .fil135 {fill:#8B84BE}
    .fil136 {fill:#8A84BE}
    .fil137 {fill:#8984BE}
    .fil138 {fill:#8A83BD}
    .fil139 {fill:#8983BD}
    .fil140 {fill:#8882BD}
    .fil141 {fill:#8882BD}
    .fil142 {fill:#8782BD}
    .fil143 {fill:#8781BC}
    .fil144 {fill:#8780BC}
    .fil145 {fill:#8680BC}
    .fil146 {fill:#8580BC}
    .fil147 {fill:#867FBB}
    .fil148 {fill:#857FBB}
    .fil149 {fill:#847EBB}
    .fil150 {fill:#847EBA}
    .fil151 {fill:#837EBA}
    .fil152 {fill:#837DBA}
    .fil153 {fill:#837DBA}
    .fil154 {fill:#827CBA}
    .fil155 {fill:#817CB9}
    .fil156 {fill:#827BB9}
    .fil157 {fill:#817BB9}
    .fil158 {fill:#807BB9}
    .fil159 {fill:#7F7AB8}
    .fil160 {fill:#7F79B8}
    .fil161 {fill:#7E79B7}
    .fil162 {fill:#7E78B7}
    .fil163 {fill:#7D78B7}
    .fil164 {fill:#7C77B6}
    .fil165 {fill:#7C76B6}
    .fil166 {fill:#7B76B6}
    .fil167 {fill:#7A75B5}
    .fil1 {fill:#7A75B5}
    .fil168 {fill:url(#id1)}
   ]]>
  </style>
    <clipPath id="id0">
     <path d="M16673 2368l-11483 -64c0,2657 0,5313 0,7969 662,101 1273,243 1968,-740 1302,-1888 1811,-4259 5271,-4382 2350,-139 3671,-1868 4244,-2783z"/>
    </clipPath>
  <linearGradient id="id1" gradientUnits="userSpaceOnUse" x1="7732.6" y1="19766.9" x2="16852.8" y2="19766.9">
   <stop offset="0" style="stop-opacity:1; stop-color:#7DC473"/>
   <stop offset="1" style="stop-opacity:1; stop-color:#9D98CA"/>
  </linearGradient>
 </defs>
 <g id="Capa_x0020_1">
  <metadata id="CorelCorpID_0Corel-Layer"/>
  <rect class="fil0" x="5190" y="2304" width="11655" height="20667"/>
  <g>
   <g style="clip-path:url(#id0)">
    <polygon class="fil1" points="5190,2304 16673,2304 16673,10516 5190,10516 "/>
    <polygon id="1" class="fil2" points="10898,6301 10965,6301 10965,6348 10898,6348 "/>
    <path id="2" class="fil2" d="M10909 6309l0 31 45 0 0 -31 -45 0zm-34 -24l113 0 0 79 -113 0 0 -79z"/>
    <path id="3" class="fil3" d="M10887 6293l0 63 89 0 0 -63 -89 0zm-34 -24l157 0 0 110 -157 0 0 -110z"/>
    <path id="4" class="fil3" d="M10864 6277l0 95 135 0 0 -95 -135 0zm-33 -23l201 0 0 141 -201 0 0 -141z"/>
    <path id="5" class="fil4" d="M10842 6262l0 125 179 0 0 -125 -179 0zm-34 -24l247 0 0 173 -247 0 0 -173z"/>
    <path id="6" class="fil4" d="M10819 6246l0 157 225 0 0 -157 -225 0zm-33 -24l291 0 0 204 -291 0 0 -204z"/>
    <path id="7" class="fil4" d="M10797 6230l0 189 269 0 0 -189 -269 0zm-34 -23l337 0 0 235 -337 0 0 -235z"/>
    <path id="8" class="fil5" d="M10774 6214l0 220 314 0 0 -220 -314 0zm-33 -23l381 0 0 267 -381 0 0 -267z"/>
    <path id="9" class="fil5" d="M10752 6199l0 251 359 0 0 -251 -359 0zm-34 -24l427 0 0 299 -427 0 0 -299z"/>
    <path id="10" class="fil6" d="M10730 6183l0 283 403 0 0 -283 -403 0zm-34 -23l471 0 0 329 -471 0 0 -329z"/>
    <path id="11" class="fil6" d="M10707 6167l0 314 449 0 0 -314 -449 0zm-33 -23l515 0 0 361 -515 0 0 -361z"/>
    <path id="12" class="fil6" d="M10685 6152l0 345 493 0 0 -345 -493 0zm-34 -24l561 0 0 393 -561 0 0 -393z"/>
    <path id="13" class="fil7" d="M10662 6136l0 377 539 0 0 -377 -539 0zm-33 -24l605 0 0 424 -605 0 0 -424z"/>
    <path id="14" class="fil7" d="M10640 6120l0 409 583 0 0 -409 -583 0zm-34 -23l651 0 0 455 -651 0 0 -455z"/>
    <path id="15" class="fil8" d="M10617 6105l0 439 628 0 0 -439 -628 0zm-33 -24l695 0 0 487 -695 0 0 -487z"/>
    <path id="16" class="fil8" d="M10595 6089l0 471 673 0 0 -471 -673 0zm-34 -24l741 0 0 519 -741 0 0 -519z"/>
    <path id="17" class="fil8" d="M10573 6073l0 503 717 0 0 -503 -717 0zm-34 -23l785 0 0 549 -785 0 0 -549z"/>
    <path id="18" class="fil9" d="M10550 6057l0 534 763 0 0 -534 -763 0zm-33 -23l829 0 0 581 -829 0 0 -581z"/>
    <path id="19" class="fil9" d="M10528 6042l0 565 807 0 0 -565 -807 0zm-34 -24l875 0 0 613 -875 0 0 -613z"/>
    <path id="20" class="fil10" d="M10505 6026l0 597 853 0 0 -597 -853 0zm-33 -24l919 0 0 644 -919 0 0 -644z"/>
    <path id="21" class="fil10" d="M10483 6010l0 628 897 0 0 -628 -897 0zm-34 -23l965 0 0 675 -965 0 0 -675z"/>
    <path id="22" class="fil10" d="M10460 5995l0 659 942 0 0 -659 -942 0zm-33 -24l1009 0 0 707 -1009 0 0 -707z"/>
    <path id="23" class="fil11" d="M10438 5979l0 691 987 0 0 -691 -987 0zm-34 -24l1055 0 0 738 -1055 0 0 -738z"/>
    <path id="24" class="fil11" d="M10416 5963l0 723 1031 0 0 -723 -1031 0zm-34 -23l1099 0 0 769 -1099 0 0 -769z"/>
    <path id="25" class="fil12" d="M10393 5948l0 753 1077 0 0 -753 -1077 0zm-33 -24l1143 0 0 801 -1143 0 0 -801z"/>
    <path id="26" class="fil12" d="M10371 5932l0 785 1121 0 0 -785 -1121 0zm-34 -24l1189 0 0 833 -1189 0 0 -833z"/>
    <path id="27" class="fil13" d="M10348 5916l0 817 1167 0 0 -817 -1167 0zm-33 -23l1233 0 0 863 -1233 0 0 -863z"/>
    <path id="28" class="fil14" d="M10326 5900l0 848 1211 0 0 -848 -1211 0zm-34 -23l1279 0 0 895 -1279 0 0 -895z"/>
    <path id="29" class="fil14" d="M10303 5885l0 879 1256 0 0 -879 -1256 0zm-33 -24l1323 0 0 927 -1323 0 0 -927z"/>
    <path id="30" class="fil15" d="M10281 5869l0 911 1301 0 0 -911 -1301 0zm-34 -24l1368 0 0 958 -1368 0 0 -958z"/>
    <path id="31" class="fil15" d="M10259 5853l0 943 1345 0 0 -943 -1345 0zm-34 -23l1413 0 0 989 -1413 0 0 -989z"/>
    <path id="32" class="fil16" d="M10236 5838l0 973 1391 0 0 -973 -1391 0zm-33 -24l1457 0 0 1021 -1457 0 0 -1021z"/>
    <path id="33" class="fil17" d="M10214 5822l0 1005 1435 0 0 -1005 -1435 0zm-34 -24l1503 0 0 1052 -1503 0 0 -1052z"/>
    <path id="34" class="fil17" d="M10191 5806l0 1037 1481 0 0 -1037 -1481 0zm-33 -23l1547 0 0 1083 -1547 0 0 -1083z"/>
    <path id="35" class="fil18" d="M10169 5790l0 1068 1525 0 0 -1068 -1525 0zm-34 -23l1593 0 0 1115 -1593 0 0 -1115z"/>
    <path id="36" class="fil18" d="M10146 5775l0 1099 1570 0 0 -1099 -1570 0zm-33 -24l1637 0 0 1147 -1637 0 0 -1147z"/>
    <path id="37" class="fil19" d="M10124 5759l0 1131 1615 0 0 -1131 -1615 0zm-34 -24l1682 0 0 1178 -1682 0 0 -1178z"/>
    <path id="38" class="fil20" d="M10102 5743l0 1162 1659 0 0 -1162 -1659 0zm-34 -23l1727 0 0 1209 -1727 0 0 -1209z"/>
    <path id="39" class="fil20" d="M10079 5728l0 1193 1705 0 0 -1193 -1705 0zm-33 -24l1771 0 0 1241 -1771 0 0 -1241z"/>
    <path id="40" class="fil21" d="M10057 5712l0 1225 1749 0 0 -1225 -1749 0zm-34 -24l1817 0 0 1272 -1817 0 0 -1272z"/>
    <path id="41" class="fil21" d="M10034 5696l0 1257 1795 0 0 -1257 -1795 0zm-33 -23l1861 0 0 1303 -1861 0 0 -1303z"/>
    <path id="42" class="fil22" d="M10012 5681l0 1287 1839 0 0 -1287 -1839 0zm-34 -24l1907 0 0 1335 -1907 0 0 -1335z"/>
    <path id="43" class="fil23" d="M9989 5665l0 1319 1884 0 0 -1319 -1884 0zm-33 -24l1951 0 0 1367 -1951 0 0 -1367z"/>
    <path id="44" class="fil23" d="M9967 5649l0 1351 1929 0 0 -1351 -1929 0zm-34 -23l1996 0 0 1397 -1996 0 0 -1397z"/>
    <path id="45" class="fil24" d="M9945 5633l0 1382 1973 0 0 -1382 -1973 0zm-34 -23l2041 0 0 1429 -2041 0 0 -1429z"/>
    <path id="46" class="fil24" d="M9922 5618l0 1413 2019 0 0 -1413 -2019 0zm-33 -24l2085 0 0 1461 -2085 0 0 -1461z"/>
    <path id="47" class="fil25" d="M9900 5602l0 1445 2063 0 0 -1445 -2063 0zm-34 -24l2131 0 0 1492 -2131 0 0 -1492z"/>
    <path id="48" class="fil26" d="M9877 5586l0 1477 2109 0 0 -1477 -2109 0zm-33 -23l2175 0 0 1523 -2175 0 0 -1523z"/>
    <path id="49" class="fil26" d="M9855 5571l0 1507 2153 0 0 -1507 -2153 0zm-34 -24l2221 0 0 1555 -2221 0 0 -1555z"/>
    <path id="50" class="fil27" d="M9833 5555l0 1539 2197 0 0 -1539 -2197 0zm-34 -24l2265 0 0 1586 -2265 0 0 -1586z"/>
    <path id="51" class="fil27" d="M9810 5539l0 1571 2243 0 0 -1571 -2243 0zm-34 -23l2310 0 0 1617 -2310 0 0 -1617z"/>
    <path id="52" class="fil28" d="M9788 5523l0 1602 2287 0 0 -1602 -2287 0zm-34 -23l2355 0 0 1649 -2355 0 0 -1649z"/>
    <path id="53" class="fil29" d="M9765 5508l0 1633 2333 0 0 -1633 -2333 0zm-33 -24l2399 0 0 1681 -2399 0 0 -1681z"/>
    <path id="54" class="fil29" d="M9743 5492l0 1665 2377 0 0 -1665 -2377 0zm-34 -23l2445 0 0 1711 -2445 0 0 -1711z"/>
    <path id="55" class="fil30" d="M9720 5476l0 1696 2423 0 0 -1696 -2423 0zm-33 -23l2489 0 0 1743 -2489 0 0 -1743z"/>
    <path id="56" class="fil30" d="M9698 5461l0 1727 2467 0 0 -1727 -2467 0zm-34 -24l2535 0 0 1775 -2535 0 0 -1775z"/>
    <path id="57" class="fil31" d="M9676 5445l0 1759 2511 0 0 -1759 -2511 0zm-34 -24l2579 0 0 1806 -2579 0 0 -1806z"/>
    <path id="58" class="fil32" d="M9653 5429l0 1791 2557 0 0 -1791 -2557 0zm-34 -23l2624 0 0 1837 -2624 0 0 -1837z"/>
    <path id="59" class="fil32" d="M9631 5414l0 1821 2601 0 0 -1821 -2601 0zm-34 -24l2669 0 0 1869 -2669 0 0 -1869z"/>
    <path id="60" class="fil33" d="M9608 5398l0 1853 2647 0 0 -1853 -2647 0zm-33 -24l2713 0 0 1901 -2713 0 0 -1901z"/>
    <path id="61" class="fil33" d="M9586 5382l0 1885 2691 0 0 -1885 -2691 0zm-34 -23l2759 0 0 1931 -2759 0 0 -1931z"/>
    <path id="62" class="fil34" d="M9563 5366l0 1916 2737 0 0 -1916 -2737 0zm-33 -23l2803 0 0 1963 -2803 0 0 -1963z"/>
    <path id="63" class="fil35" d="M9541 5351l0 1947 2781 0 0 -1947 -2781 0zm-34 -24l2849 0 0 1995 -2849 0 0 -1995z"/>
    <path id="64" class="fil35" d="M9519 5335l0 1979 2825 0 0 -1979 -2825 0zm-34 -24l2893 0 0 2026 -2893 0 0 -2026z"/>
    <path id="65" class="fil36" d="M9496 5319l0 2010 2871 0 0 -2010 -2871 0zm-34 -23l2938 0 0 2057 -2938 0 0 -2057z"/>
    <path id="66" class="fil36" d="M9474 5304l0 2041 2915 0 0 -2041 -2915 0zm-34 -24l2983 0 0 2089 -2983 0 0 -2089z"/>
    <path id="67" class="fil37" d="M9451 5288l0 2073 2961 0 0 -2073 -2961 0zm-33 -24l3027 0 0 2120 -3027 0 0 -2120z"/>
    <path id="68" class="fil38" d="M9429 5272l0 2105 3005 0 0 -2105 -3005 0zm-34 -23l3073 0 0 2151 -3073 0 0 -2151z"/>
    <path id="69" class="fil38" d="M9406 5257l0 2135 3051 0 0 -2135 -3051 0zm-33 -24l3117 0 0 2183 -3117 0 0 -2183z"/>
    <path id="70" class="fil39" d="M9384 5241l0 2167 3095 0 0 -2167 -3095 0zm-34 -24l3163 0 0 2215 -3163 0 0 -2215z"/>
    <path id="71" class="fil39" d="M9362 5225l0 2199 3139 0 0 -2199 -3139 0zm-34 -23l3207 0 0 2245 -3207 0 0 -2245z"/>
    <path id="72" class="fil40" d="M9339 5209l0 2230 3185 0 0 -2230 -3185 0zm-34 -23l3252 0 0 2277 -3252 0 0 -2277z"/>
    <path id="73" class="fil41" d="M9317 5194l0 2261 3229 0 0 -2261 -3229 0zm-34 -24l3297 0 0 2309 -3297 0 0 -2309z"/>
    <path id="74" class="fil41" d="M9294 5178l0 2293 3275 0 0 -2293 -3275 0zm-33 -24l3341 0 0 2340 -3341 0 0 -2340z"/>
    <path id="75" class="fil42" d="M9272 5162l0 2325 3319 0 0 -2325 -3319 0zm-34 -23l3387 0 0 2371 -3387 0 0 -2371z"/>
    <path id="76" class="fil42" d="M9249 5147l0 2355 3365 0 0 -2355 -3365 0zm-33 -24l3431 0 0 2403 -3431 0 0 -2403z"/>
    <path id="77" class="fil43" d="M9227 5131l0 2387 3409 0 0 -2387 -3409 0zm-34 -24l3477 0 0 2434 -3477 0 0 -2434z"/>
    <path id="78" class="fil44" d="M9205 5115l0 2419 3453 0 0 -2419 -3453 0zm-34 -23l3521 0 0 2465 -3521 0 0 -2465z"/>
    <path id="79" class="fil45" d="M9182 5099l0 2450 3499 0 0 -2450 -3499 0zm-34 -23l3566 0 0 2497 -3566 0 0 -2497z"/>
    <path id="80" class="fil46" d="M9160 5084l0 2481 3543 0 0 -2481 -3543 0zm-34 -24l3611 0 0 2529 -3611 0 0 -2529z"/>
    <path id="81" class="fil46" d="M9137 5068l0 2513 3589 0 0 -2513 -3589 0zm-33 -23l3655 0 0 2559 -3655 0 0 -2559z"/>
    <path id="82" class="fil47" d="M9115 5052l0 2544 3633 0 0 -2544 -3633 0zm-34 -23l3701 0 0 2591 -3701 0 0 -2591z"/>
    <path id="83" class="fil48" d="M9092 5037l0 2575 3679 0 0 -2575 -3679 0zm-33 -24l3745 0 0 2623 -3745 0 0 -2623z"/>
    <path id="84" class="fil49" d="M9070 5021l0 2607 3723 0 0 -2607 -3723 0zm-34 -24l3791 0 0 2654 -3791 0 0 -2654z"/>
    <path id="85" class="fil50" d="M9048 5005l0 2639 3767 0 0 -2639 -3767 0zm-34 -23l3835 0 0 2685 -3835 0 0 -2685z"/>
    <path id="86" class="fil50" d="M9025 4990l0 2669 3813 0 0 -2669 -3813 0zm-34 -24l3880 0 0 2717 -3880 0 0 -2717z"/>
    <path id="87" class="fil51" d="M9003 4974l0 2701 3857 0 0 -2701 -3857 0zm-34 -24l3925 0 0 2749 -3925 0 0 -2749z"/>
    <path id="88" class="fil52" d="M8980 4958l0 2733 3903 0 0 -2733 -3903 0zm-33 -23l3969 0 0 2779 -3969 0 0 -2779z"/>
    <path id="89" class="fil53" d="M8958 4942l0 2764 3947 0 0 -2764 -3947 0zm-34 -23l4015 0 0 2811 -4015 0 0 -2811z"/>
    <path id="90" class="fil54" d="M8935 4927l0 2795 3993 0 0 -2795 -3993 0zm-33 -24l4059 0 0 2843 -4059 0 0 -2843z"/>
    <path id="91" class="fil54" d="M8913 4911l0 2827 4037 0 0 -2827 -4037 0zm-34 -24l4105 0 0 2874 -4105 0 0 -2874z"/>
    <path id="92" class="fil55" d="M8891 4895l0 2858 4081 0 0 -2858 -4081 0zm-34 -23l4149 0 0 2905 -4149 0 0 -2905z"/>
    <path id="93" class="fil56" d="M8868 4880l0 2889 4127 0 0 -2889 -4127 0zm-34 -24l4194 0 0 2937 -4194 0 0 -2937z"/>
    <path id="94" class="fil57" d="M8846 4864l0 2921 4171 0 0 -2921 -4171 0zm-34 -24l4239 0 0 2968 -4239 0 0 -2968z"/>
    <path id="95" class="fil58" d="M8823 4848l0 2953 4217 0 0 -2953 -4217 0zm-33 -23l4283 0 0 2999 -4283 0 0 -2999z"/>
    <path id="96" class="fil58" d="M8801 4833l0 2983 4261 0 0 -2983 -4261 0zm-34 -24l4329 0 0 3031 -4329 0 0 -3031z"/>
    <path id="97" class="fil59" d="M8778 4817l0 3015 4307 0 0 -3015 -4307 0zm-33 -24l4373 0 0 3063 -4373 0 0 -3063z"/>
    <path id="98" class="fil60" d="M8756 4801l0 3047 4351 0 0 -3047 -4351 0zm-34 -23l4419 0 0 3093 -4419 0 0 -3093z"/>
    <path id="99" class="fil61" d="M8734 4785l0 3078 4395 0 0 -3078 -4395 0zm-34 -23l4463 0 0 3125 -4463 0 0 -3125z"/>
    <path id="100" class="fil62" d="M8711 4770l0 3109 4441 0 0 -3109 -4441 0zm-34 -24l4508 0 0 3157 -4508 0 0 -3157z"/>
    <path id="101" class="fil62" d="M8689 4754l0 3141 4485 0 0 -3141 -4485 0zm-34 -24l4553 0 0 3188 -4553 0 0 -3188z"/>
    <path id="102" class="fil63" d="M8666 4738l0 3173 4531 0 0 -3173 -4531 0zm-33 -23l4597 0 0 3219 -4597 0 0 -3219z"/>
    <path id="103" class="fil64" d="M8644 4723l0 3203 4575 0 0 -3203 -4575 0zm-34 -24l4643 0 0 3251 -4643 0 0 -3251z"/>
    <path id="104" class="fil65" d="M8621 4707l0 3235 4620 0 0 -3235 -4620 0zm-33 -24l4687 0 0 3282 -4687 0 0 -3282z"/>
    <path id="105" class="fil66" d="M8599 4691l0 3267 4665 0 0 -3267 -4665 0zm-34 -23l4733 0 0 3313 -4733 0 0 -3313z"/>
    <path id="106" class="fil66" d="M8577 4675l0 3298 4709 0 0 -3298 -4709 0zm-34 -23l4777 0 0 3345 -4777 0 0 -3345z"/>
    <path id="107" class="fil67" d="M8554 4660l0 3329 4755 0 0 -3329 -4755 0zm-34 -24l4822 0 0 3377 -4822 0 0 -3377z"/>
    <path id="108" class="fil68" d="M8532 4644l0 3361 4799 0 0 -3361 -4799 0zm-34 -23l4867 0 0 3407 -4867 0 0 -3407z"/>
    <path id="109" class="fil69" d="M8509 4628l0 3392 4845 0 0 -3392 -4845 0zm-33 -23l4911 0 0 3439 -4911 0 0 -3439z"/>
    <path id="110" class="fil70" d="M8487 4613l0 3423 4889 0 0 -3423 -4889 0zm-34 -24l4957 0 0 3471 -4957 0 0 -3471z"/>
    <path id="111" class="fil70" d="M8464 4597l0 3455 4934 0 0 -3455 -4934 0zm-33 -24l5001 0 0 3502 -5001 0 0 -3502z"/>
    <path id="112" class="fil71" d="M8442 4581l0 3487 4979 0 0 -3487 -4979 0zm-34 -23l5047 0 0 3533 -5047 0 0 -3533z"/>
    <path id="113" class="fil72" d="M8420 4566l0 3517 5023 0 0 -3517 -5023 0zm-34 -24l5091 0 0 3565 -5091 0 0 -3565z"/>
    <path id="114" class="fil73" d="M8397 4550l0 3549 5069 0 0 -3549 -5069 0zm-34 -24l5136 0 0 3597 -5136 0 0 -3597z"/>
    <path id="115" class="fil74" d="M8375 4534l0 3581 5113 0 0 -3581 -5113 0zm-34 -23l5181 0 0 3627 -5181 0 0 -3627z"/>
    <path id="116" class="fil74" d="M8352 4518l0 3612 5159 0 0 -3612 -5159 0zm-33 -23l5225 0 0 3659 -5225 0 0 -3659z"/>
    <path id="117" class="fil75" d="M8330 4503l0 3643 5203 0 0 -3643 -5203 0zm-34 -24l5271 0 0 3691 -5271 0 0 -3691z"/>
    <path id="118" class="fil76" d="M8307 4487l0 3675 5248 0 0 -3675 -5248 0zm-33 -24l5315 0 0 3722 -5315 0 0 -3722z"/>
    <path id="119" class="fil77" d="M8285 4471l0 3706 5293 0 0 -3706 -5293 0zm-34 -23l5361 0 0 3753 -5361 0 0 -3753z"/>
    <path id="120" class="fil78" d="M8263 4456l0 3737 5337 0 0 -3737 -5337 0zm-34 -24l5405 0 0 3785 -5405 0 0 -3785z"/>
    <path id="121" class="fil78" d="M8240 4440l0 3769 5383 0 0 -3769 -5383 0zm-33 -24l5449 0 0 3816 -5449 0 0 -3816z"/>
    <path id="122" class="fil79" d="M8218 4424l0 3801 5427 0 0 -3801 -5427 0zm-34 -23l5495 0 0 3847 -5495 0 0 -3847z"/>
    <path id="123" class="fil80" d="M8195 4408l0 3832 5473 0 0 -3832 -5473 0zm-33 -23l5539 0 0 3879 -5539 0 0 -3879z"/>
    <path id="124" class="fil81" d="M8173 4393l0 3863 5517 0 0 -3863 -5517 0zm-34 -24l5585 0 0 3911 -5585 0 0 -3911z"/>
    <path id="125" class="fil82" d="M8150 4377l0 3895 5562 0 0 -3895 -5562 0zm-33 -23l5629 0 0 3941 -5629 0 0 -3941z"/>
    <path id="126" class="fil82" d="M8128 4361l0 3926 5607 0 0 -3926 -5607 0zm-34 -23l5675 0 0 3973 -5675 0 0 -3973z"/>
    <path id="127" class="fil83" d="M8106 4346l0 3957 5651 0 0 -3957 -5651 0zm-34 -24l5719 0 0 4005 -5719 0 0 -4005z"/>
    <path id="128" class="fil84" d="M8083 4330l0 3989 5697 0 0 -3989 -5697 0zm-33 -24l5763 0 0 4036 -5763 0 0 -4036z"/>
    <path id="129" class="fil85" d="M8061 4314l0 4021 5741 0 0 -4021 -5741 0zm-34 -23l5809 0 0 4067 -5809 0 0 -4067z"/>
    <path id="130" class="fil86" d="M8038 4299l0 4051 5787 0 0 -4051 -5787 0zm-33 -24l5853 0 0 4099 -5853 0 0 -4099z"/>
    <path id="131" class="fil87" d="M8016 4283l0 4083 5831 0 0 -4083 -5831 0zm-34 -24l5899 0 0 4131 -5899 0 0 -4131z"/>
    <path id="132" class="fil87" d="M7993 4267l0 4115 5876 0 0 -4115 -5876 0zm-33 -23l5943 0 0 4161 -5943 0 0 -4161z"/>
    <path id="133" class="fil88" d="M7971 4251l0 4146 5921 0 0 -4146 -5921 0zm-34 -23l5989 0 0 4193 -5989 0 0 -4193z"/>
    <path id="134" class="fil89" d="M7949 4236l0 4177 5965 0 0 -4177 -5965 0zm-34 -24l6033 0 0 4225 -6033 0 0 -4225z"/>
    <path id="135" class="fil90" d="M7926 4220l0 4209 6011 0 0 -4209 -6011 0zm-33 -24l6077 0 0 4256 -6077 0 0 -4256z"/>
    <path id="136" class="fil91" d="M7904 4204l0 4240 6055 0 0 -4240 -6055 0zm-34 -23l6123 0 0 4287 -6123 0 0 -4287z"/>
    <path id="137" class="fil91" d="M7881 4189l0 4271 6101 0 0 -4271 -6101 0zm-33 -24l6167 0 0 4319 -6167 0 0 -4319z"/>
    <path id="138" class="fil92" d="M7859 4173l0 4303 6145 0 0 -4303 -6145 0zm-34 -24l6213 0 0 4350 -6213 0 0 -4350z"/>
    <path id="139" class="fil93" d="M7836 4157l0 4335 6190 0 0 -4335 -6190 0zm-33 -23l6257 0 0 4381 -6257 0 0 -4381z"/>
    <path id="140" class="fil94" d="M7814 4142l0 4365 6235 0 0 -4365 -6235 0zm-34 -24l6303 0 0 4413 -6303 0 0 -4413z"/>
    <path id="141" class="fil95" d="M7792 4126l0 4397 6279 0 0 -4397 -6279 0zm-34 -24l6347 0 0 4445 -6347 0 0 -4445z"/>
    <path id="142" class="fil95" d="M7769 4110l0 4429 6325 0 0 -4429 -6325 0zm-33 -23l6391 0 0 4475 -6391 0 0 -4475z"/>
    <path id="143" class="fil96" d="M7747 4094l0 4460 6369 0 0 -4460 -6369 0zm-34 -23l6437 0 0 4507 -6437 0 0 -4507z"/>
    <path id="144" class="fil97" d="M7724 4079l0 4491 6415 0 0 -4491 -6415 0zm-33 -24l6481 0 0 4539 -6481 0 0 -4539z"/>
    <path id="145" class="fil98" d="M7702 4063l0 4523 6459 0 0 -4523 -6459 0zm-34 -24l6527 0 0 4570 -6527 0 0 -4570z"/>
    <path id="146" class="fil99" d="M7679 4047l0 4555 6504 0 0 -4555 -6504 0zm-33 -23l6571 0 0 4601 -6571 0 0 -4601z"/>
    <path id="147" class="fil99" d="M7657 4032l0 4585 6549 0 0 -4585 -6549 0zm-34 -24l6617 0 0 4633 -6617 0 0 -4633z"/>
    <path id="148" class="fil100" d="M7635 4016l0 4617 6593 0 0 -4617 -6593 0zm-34 -24l6661 0 0 4664 -6661 0 0 -4664z"/>
    <path id="149" class="fil101" d="M7612 4000l0 4649 6639 0 0 -4649 -6639 0zm-33 -23l6705 0 0 4695 -6705 0 0 -4695z"/>
    <path id="150" class="fil102" d="M7590 3984l0 4680 6683 0 0 -4680 -6683 0zm-34 -23l6751 0 0 4727 -6751 0 0 -4727z"/>
    <path id="151" class="fil103" d="M7567 3969l0 4711 6729 0 0 -4711 -6729 0zm-33 -24l6795 0 0 4759 -6795 0 0 -4759z"/>
    <path id="152" class="fil103" d="M7545 3953l0 4743 6773 0 0 -4743 -6773 0zm-34 -23l6841 0 0 4789 -6841 0 0 -4789z"/>
    <path id="153" class="fil104" d="M7522 3937l0 4774 6818 0 0 -4774 -6818 0zm-33 -23l6885 0 0 4821 -6885 0 0 -4821z"/>
    <path id="154" class="fil105" d="M7500 3922l0 4805 6863 0 0 -4805 -6863 0zm-34 -24l6931 0 0 4853 -6931 0 0 -4853z"/>
    <path id="155" class="fil106" d="M7478 3906l0 4837 6907 0 0 -4837 -6907 0zm-34 -24l6975 0 0 4884 -6975 0 0 -4884z"/>
    <path id="156" class="fil107" d="M7455 3890l0 4869 6953 0 0 -4869 -6953 0zm-33 -23l7019 0 0 4915 -7019 0 0 -4915z"/>
    <path id="157" class="fil107" d="M7433 3875l0 4899 6997 0 0 -4899 -6997 0zm-34 -24l7065 0 0 4947 -7065 0 0 -4947z"/>
    <path id="158" class="fil108" d="M7410 3859l0 4931 7043 0 0 -4931 -7043 0zm-33 -24l7109 0 0 4979 -7109 0 0 -4979z"/>
    <path id="159" class="fil109" d="M7388 3843l0 4963 7087 0 0 -4963 -7087 0zm-34 -23l7155 0 0 5009 -7155 0 0 -5009z"/>
    <path id="160" class="fil110" d="M7365 3827l0 4994 7132 0 0 -4994 -7132 0zm-33 -23l7199 0 0 5041 -7199 0 0 -5041z"/>
    <path id="161" class="fil111" d="M7343 3812l0 5025 7177 0 0 -5025 -7177 0zm-34 -24l7245 0 0 5073 -7245 0 0 -5073z"/>
    <path id="162" class="fil111" d="M7321 3796l0 5057 7221 0 0 -5057 -7221 0zm-34 -24l7289 0 0 5104 -7289 0 0 -5104z"/>
    <path id="163" class="fil112" d="M7298 3780l0 5088 7267 0 0 -5088 -7267 0zm-33 -23l7333 0 0 5135 -7333 0 0 -5135z"/>
    <path id="164" class="fil113" d="M7276 3765l0 5119 7311 0 0 -5119 -7311 0zm-34 -24l7379 0 0 5167 -7379 0 0 -5167z"/>
    <path id="165" class="fil114" d="M7253 3749l0 5151 7357 0 0 -5151 -7357 0zm-33 -24l7423 0 0 5198 -7423 0 0 -5198z"/>
    <path id="166" class="fil115" d="M7231 3733l0 5183 7401 0 0 -5183 -7401 0zm-34 -23l7469 0 0 5229 -7469 0 0 -5229z"/>
    <path id="167" class="fil115" d="M7208 3718l0 5213 7446 0 0 -5213 -7446 0zm-33 -24l7513 0 0 5261 -7513 0 0 -5261z"/>
    <path id="168" class="fil116" d="M7186 3702l0 5245 7491 0 0 -5245 -7491 0zm-34 -24l7559 0 0 5293 -7559 0 0 -5293z"/>
    <path id="169" class="fil117" d="M7164 3686l0 5277 7535 0 0 -5277 -7535 0zm-34 -23l7603 0 0 5323 -7603 0 0 -5323z"/>
    <path id="170" class="fil118" d="M7141 3670l0 5308 7581 0 0 -5308 -7581 0zm-33 -23l7647 0 0 5355 -7647 0 0 -5355z"/>
    <path id="171" class="fil119" d="M7119 3655l0 5339 7625 0 0 -5339 -7625 0zm-34 -24l7693 0 0 5387 -7693 0 0 -5387z"/>
    <path id="172" class="fil119" d="M7096 3639l0 5371 7671 0 0 -5371 -7671 0zm-33 -24l7737 0 0 5418 -7737 0 0 -5418z"/>
    <path id="173" class="fil120" d="M7074 3623l0 5403 7715 0 0 -5403 -7715 0zm-34 -23l7783 0 0 5449 -7783 0 0 -5449z"/>
    <path id="174" class="fil121" d="M7051 3608l0 5433 7760 0 0 -5433 -7760 0zm-33 -24l7827 0 0 5481 -7827 0 0 -5481z"/>
    <path id="175" class="fil122" d="M7029 3592l0 5465 7805 0 0 -5465 -7805 0zm-34 -24l7872 0 0 5512 -7872 0 0 -5512z"/>
    <path id="176" class="fil123" d="M7007 3576l0 5497 7849 0 0 -5497 -7849 0zm-34 -23l7917 0 0 5543 -7917 0 0 -5543z"/>
    <path id="177" class="fil123" d="M6984 3560l0 5528 7895 0 0 -5528 -7895 0zm-33 -23l7961 0 0 5575 -7961 0 0 -5575z"/>
    <path id="178" class="fil124" d="M6962 3545l0 5559 7939 0 0 -5559 -7939 0zm-34 -24l8007 0 0 5607 -8007 0 0 -5607z"/>
    <path id="179" class="fil125" d="M6939 3529l0 5591 7985 0 0 -5591 -7985 0zm-33 -23l8051 0 0 5637 -8051 0 0 -5637z"/>
    <path id="180" class="fil126" d="M6917 3513l0 5622 8029 0 0 -5622 -8029 0zm-34 -23l8097 0 0 5669 -8097 0 0 -5669z"/>
    <path id="181" class="fil127" d="M6894 3498l0 5653 8074 0 0 -5653 -8074 0zm-33 -24l8141 0 0 5701 -8141 0 0 -5701z"/>
    <path id="182" class="fil127" d="M6872 3482l0 5685 8119 0 0 -5685 -8119 0zm-34 -24l8186 0 0 5732 -8186 0 0 -5732z"/>
    <path id="183" class="fil128" d="M6850 3466l0 5717 8163 0 0 -5717 -8163 0zm-34 -23l8231 0 0 5763 -8231 0 0 -5763z"/>
    <path id="184" class="fil128" d="M6827 3451l0 5747 8209 0 0 -5747 -8209 0zm-33 -24l8275 0 0 5795 -8275 0 0 -5795z"/>
    <path id="185" class="fil129" d="M6805 3435l0 5779 8253 0 0 -5779 -8253 0zm-34 -24l8321 0 0 5827 -8321 0 0 -5827z"/>
    <path id="186" class="fil130" d="M6782 3419l0 5811 8299 0 0 -5811 -8299 0zm-33 -23l8365 0 0 5857 -8365 0 0 -5857z"/>
    <path id="187" class="fil130" d="M6760 3403l0 5842 8343 0 0 -5842 -8343 0zm-34 -23l8411 0 0 5889 -8411 0 0 -5889z"/>
    <path id="188" class="fil131" d="M6737 3388l0 5873 8388 0 0 -5873 -8388 0zm-33 -24l8455 0 0 5921 -8455 0 0 -5921z"/>
    <path id="189" class="fil131" d="M6715 3372l0 5905 8433 0 0 -5905 -8433 0zm-34 -24l8500 0 0 5952 -8500 0 0 -5952z"/>
    <path id="190" class="fil132" d="M6693 3356l0 5936 8477 0 0 -5936 -8477 0zm-34 -23l8545 0 0 5983 -8545 0 0 -5983z"/>
    <path id="191" class="fil133" d="M6670 3341l0 5967 8523 0 0 -5967 -8523 0zm-33 -24l8589 0 0 6015 -8589 0 0 -6015z"/>
    <path id="192" class="fil133" d="M6648 3325l0 5999 8567 0 0 -5999 -8567 0zm-34 -24l8635 0 0 6046 -8635 0 0 -6046z"/>
    <path id="193" class="fil134" d="M6625 3309l0 6031 8613 0 0 -6031 -8613 0zm-33 -23l8679 0 0 6077 -8679 0 0 -6077z"/>
    <path id="194" class="fil134" d="M6603 3293l0 6062 8657 0 0 -6062 -8657 0zm-34 -23l8725 0 0 6109 -8725 0 0 -6109z"/>
    <path id="195" class="fil135" d="M6581 3278l0 6093 8701 0 0 -6093 -8701 0zm-34 -24l8769 0 0 6141 -8769 0 0 -6141z"/>
    <path id="196" class="fil136" d="M6558 3262l0 6125 8747 0 0 -6125 -8747 0zm-34 -23l8814 0 0 6171 -8814 0 0 -6171z"/>
    <path id="197" class="fil136" d="M6536 3246l0 6156 8791 0 0 -6156 -8791 0zm-34 -23l8859 0 0 6203 -8859 0 0 -6203z"/>
    <path id="198" class="fil137" d="M6513 3231l0 6187 8837 0 0 -6187 -8837 0zm-33 -24l8903 0 0 6235 -8903 0 0 -6235z"/>
    <path id="199" class="fil137" d="M6491 3215l0 6219 8881 0 0 -6219 -8881 0zm-34 -24l8949 0 0 6266 -8949 0 0 -6266z"/>
    <path id="200" class="fil138" d="M6468 3199l0 6251 8927 0 0 -6251 -8927 0zm-33 -23l8993 0 0 6297 -8993 0 0 -6297z"/>
    <path id="201" class="fil139" d="M6446 3184l0 6281 8971 0 0 -6281 -8971 0zm-34 -24l9039 0 0 6329 -9039 0 0 -6329z"/>
    <path id="202" class="fil139" d="M6424 3168l0 6313 9015 0 0 -6313 -9015 0zm-34 -24l9083 0 0 6361 -9083 0 0 -6361z"/>
    <path id="203" class="fil140" d="M6401 3152l0 6345 9061 0 0 -6345 -9061 0zm-34 -23l9128 0 0 6391 -9128 0 0 -6391z"/>
    <path id="204" class="fil140" d="M6379 3136l0 6376 9105 0 0 -6376 -9105 0zm-34 -23l9173 0 0 6423 -9173 0 0 -6423z"/>
    <path id="205" class="fil141" d="M6356 3121l0 6407 9151 0 0 -6407 -9151 0zm-33 -24l9217 0 0 6455 -9217 0 0 -6455z"/>
    <path id="206" class="fil142" d="M6334 3105l0 6439 9195 0 0 -6439 -9195 0zm-34 -24l9263 0 0 6486 -9263 0 0 -6486z"/>
    <path id="207" class="fil142" d="M6311 3089l0 6470 9241 0 0 -6470 -9241 0zm-33 -23l9307 0 0 6517 -9307 0 0 -6517z"/>
    <path id="208" class="fil143" d="M6289 3074l0 6501 9285 0 0 -6501 -9285 0zm-34 -24l9353 0 0 6549 -9353 0 0 -6549z"/>
    <path id="209" class="fil143" d="M6267 3058l0 6533 9329 0 0 -6533 -9329 0zm-34 -24l9397 0 0 6580 -9397 0 0 -6580z"/>
    <path id="210" class="fil144" d="M6244 3042l0 6565 9375 0 0 -6565 -9375 0zm-34 -23l9442 0 0 6611 -9442 0 0 -6611z"/>
    <path id="211" class="fil145" d="M6222 3027l0 6595 9419 0 0 -6595 -9419 0zm-34 -24l9487 0 0 6643 -9487 0 0 -6643z"/>
    <path id="212" class="fil145" d="M6199 3011l0 6627 9465 0 0 -6627 -9465 0zm-33 -24l9531 0 0 6675 -9531 0 0 -6675z"/>
    <path id="213" class="fil146" d="M6177 2995l0 6659 9509 0 0 -6659 -9509 0zm-34 -23l9577 0 0 6705 -9577 0 0 -6705z"/>
    <path id="214" class="fil146" d="M6154 2979l0 6690 9555 0 0 -6690 -9555 0zm-33 -23l9621 0 0 6737 -9621 0 0 -6737z"/>
    <path id="215" class="fil147" d="M6132 2964l0 6721 9599 0 0 -6721 -9599 0zm-34 -24l9667 0 0 6769 -9667 0 0 -6769z"/>
    <path id="216" class="fil148" d="M6110 2948l0 6753 9643 0 0 -6753 -9643 0zm-34 -24l9711 0 0 6800 -9711 0 0 -6800z"/>
    <path id="217" class="fil148" d="M6087 2932l0 6785 9689 0 0 -6785 -9689 0zm-34 -23l9756 0 0 6831 -9756 0 0 -6831z"/>
    <path id="218" class="fil149" d="M6065 2917l0 6815 9733 0 0 -6815 -9733 0zm-34 -24l9801 0 0 6863 -9801 0 0 -6863z"/>
    <path id="219" class="fil149" d="M6042 2901l0 6847 9779 0 0 -6847 -9779 0zm-33 -24l9845 0 0 6894 -9845 0 0 -6894z"/>
    <path id="220" class="fil150" d="M6020 2885l0 6879 9823 0 0 -6879 -9823 0zm-34 -23l9891 0 0 6925 -9891 0 0 -6925z"/>
    <path id="221" class="fil151" d="M5997 2869l0 6910 9869 0 0 -6910 -9869 0zm-33 -23l9935 0 0 6957 -9935 0 0 -6957z"/>
    <path id="222" class="fil151" d="M5975 2854l0 6941 9913 0 0 -6941 -9913 0zm-34 -24l9981 0 0 6989 -9981 0 0 -6989z"/>
    <path id="223" class="fil152" d="M5953 2838l0 6973 9957 0 0 -6973 -9957 0zm-34 -23l10025 0 0 7019 -10025 0 0 -7019z"/>
    <path id="224" class="fil152" d="M5930 2822l0 7004 10003 0 0 -7004 -10003 0zm-34 -23l10070 0 0 7051 -10070 0 0 -7051z"/>
    <path id="225" class="fil153" d="M5908 2807l0 7035 10047 0 0 -7035 -10047 0zm-34 -24l10115 0 0 7083 -10115 0 0 -7083z"/>
    <path id="226" class="fil154" d="M5885 2791l0 7067 10093 0 0 -7067 -10093 0zm-33 -24l10159 0 0 7114 -10159 0 0 -7114z"/>
    <path id="227" class="fil154" d="M5863 2775l0 7099 10137 0 0 -7099 -10137 0zm-34 -23l10205 0 0 7145 -10205 0 0 -7145z"/>
    <path id="228" class="fil155" d="M5840 2760l0 7129 10183 0 0 -7129 -10183 0zm-33 -24l10249 0 0 7177 -10249 0 0 -7177z"/>
    <path id="229" class="fil155" d="M5818 2744l0 7161 10227 0 0 -7161 -10227 0zm-34 -24l10295 0 0 7209 -10295 0 0 -7209z"/>
    <path id="230" class="fil156" d="M5796 2728l0 7193 10271 0 0 -7193 -10271 0zm-34 -23l10339 0 0 7239 -10339 0 0 -7239z"/>
    <path id="231" class="fil157" d="M5773 2712l0 7224 10317 0 0 -7224 -10317 0zm-34 -23l10384 0 0 7271 -10384 0 0 -7271z"/>
    <path id="232" class="fil157" d="M5751 2697l0 7255 10361 0 0 -7255 -10361 0zm-34 -24l10429 0 0 7303 -10429 0 0 -7303z"/>
    <path id="233" class="fil158" d="M5728 2681l0 7287 10407 0 0 -7287 -10407 0zm-33 -24l10473 0 0 7334 -10473 0 0 -7334z"/>
    <path id="234" class="fil158" d="M5706 2665l0 7318 10451 0 0 -7318 -10451 0zm-34 -23l10519 0 0 7365 -10519 0 0 -7365z"/>
    <path id="235" class="fil159" d="M5683 2650l0 7349 10497 0 0 -7349 -10497 0zm-33 -24l10563 0 0 7397 -10563 0 0 -7397z"/>
    <path id="236" class="fil159" d="M5661 2634l0 7381 10541 0 0 -7381 -10541 0zm-34 -24l10609 0 0 7428 -10609 0 0 -7428z"/>
    <path id="237" class="fil159" d="M5639 2618l0 7413 10585 0 0 -7413 -10585 0zm-34 -23l10653 0 0 7459 -10653 0 0 -7459z"/>
    <path id="238" class="fil160" d="M5616 2603l0 7443 10631 0 0 -7443 -10631 0zm-34 -24l10698 0 0 7491 -10698 0 0 -7491z"/>
    <path id="239" class="fil160" d="M5594 2587l0 7475 10675 0 0 -7475 -10675 0zm-34 -24l10743 0 0 7523 -10743 0 0 -7523z"/>
    <path id="240" class="fil161" d="M5571 2571l0 7507 10721 0 0 -7507 -10721 0zm-33 -23l10787 0 0 7553 -10787 0 0 -7553z"/>
    <path id="241" class="fil161" d="M5549 2555l0 7538 10765 0 0 -7538 -10765 0zm-34 -23l10833 0 0 7585 -10833 0 0 -7585z"/>
    <path id="242" class="fil161" d="M5526 2540l0 7569 10811 0 0 -7569 -10811 0zm-33 -24l10877 0 0 7617 -10877 0 0 -7617z"/>
    <path id="243" class="fil162" d="M5504 2524l0 7601 10855 0 0 -7601 -10855 0zm-34 -24l10923 0 0 7648 -10923 0 0 -7648z"/>
    <path id="244" class="fil162" d="M5482 2508l0 7633 10899 0 0 -7633 -10899 0zm-34 -23l10967 0 0 7679 -10967 0 0 -7679z"/>
    <path id="245" class="fil163" d="M5459 2493l0 7663 10945 0 0 -7663 -10945 0zm-34 -24l11012 0 0 7711 -11012 0 0 -7711z"/>
    <path id="246" class="fil163" d="M5437 2477l0 7695 10989 0 0 -7695 -10989 0zm-34 -24l11057 0 0 7742 -11057 0 0 -7742z"/>
    <path id="247" class="fil163" d="M5414 2461l0 7727 11035 0 0 -7727 -11035 0zm-33 -23l11101 0 0 7773 -11101 0 0 -7773z"/>
    <path id="248" class="fil164" d="M5392 2445l0 7758 11079 0 0 -7758 -11079 0zm-34 -23l11147 0 0 7805 -11147 0 0 -7805z"/>
    <path id="249" class="fil164" d="M5369 2430l0 7789 11124 0 0 -7789 -11124 0zm-33 -24l11191 0 0 7837 -11191 0 0 -7837z"/>
    <path id="250" class="fil165" d="M5347 2414l0 7821 11169 0 0 -7821 -11169 0zm-34 -23l11237 0 0 7867 -11237 0 0 -7867z"/>
    <path id="251" class="fil165" d="M5325 2398l0 7852 11213 0 0 -7852 -11213 0zm-34 -23l11281 0 0 7899 -11281 0 0 -7899z"/>
    <path id="252" class="fil165" d="M5302 2383l0 7883 11259 0 0 -7883 -11259 0zm-34 -24l11326 0 0 7931 -11326 0 0 -7931z"/>
    <path id="253" class="fil166" d="M5280 2367l0 7915 11303 0 0 -7915 -11303 0zm-34 -24l11371 0 0 7962 -11371 0 0 -7962z"/>
    <path id="254" class="fil166" d="M5257 2351l0 7947 11349 0 0 -7947 -11349 0zm-33 -23l11415 0 0 7993 -11415 0 0 -7993z"/>
    <path id="255" class="fil167" d="M5235 2336l0 7977 11393 0 0 -7977 -11393 0zm-34 -24l11461 0 0 8025 -11461 0 0 -8025z"/>
    <path id="256" class="fil1" d="M5212 2320l0 8009 11438 0 0 -8009 -11438 0zm-22 -16l11483 0 0 8041 -11483 0 0 -8041z"/>
   </g>
  </g>
  <path class="fil168" d="M7733 22910l9120 50c0,-2110 0,-4220 0,-6330 -526,-79 -1012,-193 -1564,589 -1033,1499 -1437,3382 -4186,3480 -1867,110 -2916,1484 -3370,2211z"/>
 </g>
</svg>
