<?xml version="1.0" encoding="UTF-8"?>
<!DOCTYPE svg PUBLIC "-//W3C//DTD SVG 1.1//EN" "http://www.w3.org/Graphics/SVG/1.1/DTD/svg11.dtd">
<!-- Creator: CorelDRAW X8 -->
<svg xmlns="http://www.w3.org/2000/svg" xml:space="preserve" width="215.9mm" height="279.4mm" version="1.1" style="shape-rendering:geometricPrecision; text-rendering:geometricPrecision; image-rendering:optimizeQuality; fill-rule:evenodd; clip-rule:evenodd"
viewBox="0 0 21590 27940"
 xmlns:xlink="http://www.w3.org/1999/xlink">
 <defs>
  <style type="text/css">
   <![CDATA[
    .str0 {stroke:#FEFEFE;stroke-width:300}
    .str1 {stroke:#FEFEFE;stroke-width:7.62}
    .fil2 {fill:none}
    .fil1 {fill:#FEFEFE}
    .fil0 {fill:#EF5B5B}
   ]]>
  </style>
 </defs>
 <g id="Capa_x0020_1">
  <metadata id="CorelCorpID_0Corel-Layer"/>
  <path class="fil0" d="M7386 4246c688,-449 2006,-1205 2725,-1583 719,-379 838,-379 1553,2 714,380 2023,1141 2707,1570 683,429 741,527 774,1338 33,812 42,2338 -9,3165 -51,827 -161,956 -838,1383 -677,427 -1920,1152 -2615,1515 -694,362 -840,362 -1565,-11 -726,-374 -2031,-1122 -2717,-1575 -685,-454 -752,-613 -785,-1409 -33,-796 -33,-2229 -4,-3017 29,-787 86,-929 774,-1378z"/>
  <g id="_1754361522288">
   <path class="fil1" d="M9458 8956c248,148 593,347 858,508 266,161 452,284 640,338 188,55 379,41 592,-170 213,-211 449,-619 654,-950 204,-332 376,-586 503,-849 127,-263 209,-536 236,-817 28,-281 0,-572 -22,-803 -23,-232 -41,-404 -82,-563 -41,-159 -104,-304 -173,-445 -68,-140 -140,-276 -267,-385 -127,-109 -309,-191 -511,-291 -202,-100 -424,-218 -612,-295 -189,-77 -343,-113 -577,-149 -233,-37 -547,-73 -722,-35 -175,38 -212,150 -323,218 -111,68 -296,92 -475,159 -179,66 -352,175 -497,316 -145,140 -263,313 -363,499 -100,186 -181,386 -240,556 -59,170 -96,311 -116,492 -21,182 -25,404 -18,606 6,202 25,383 61,535 36,152 91,275 163,400 73,124 164,252 291,383 127,132 290,268 447,384 156,115 306,211 553,358z"/>
   <g>
    <path class="fil2 str0" d="M10474 9627c679,469 1358,938 1748,1162 390,223 490,202 595,97 105,-105 216,-293 317,-460 102,-167 194,-314 223,-459 30,-146 -4,-291 -75,-384 -72,-92 -183,-132 -296,-138 -113,-5 -229,25 -316,72 -87,46 -146,109 -185,157 -39,48 -59,80 -173,8 -114,-71 -323,-245 -427,-332 -105,-87 -105,-87 -105,-87"/>
    <g>
     <path class="fil1 str1" d="M8144 7280c-110,-438 -144,-717 -63,-1143l115 -397c55,-135 141,-333 232,-449 45,-57 104,-159 180,-244 287,-320 668,-622 1119,-735 473,-118 694,-150 1185,-64 159,28 423,121 575,196 558,274 1077,827 1235,1457l54 219c100,399 45,915 -63,1223 -44,126 -83,228 -148,345 -23,40 -26,61 -51,103l-944 1574c-123,205 -152,338 -376,394 -147,37 -344,-118 -449,-181l-1567 -939c-42,-26 -56,-45 -101,-71 -130,-77 -270,-212 -378,-318 -200,-197 -462,-599 -555,-970zm3120 2862l8 -2 22 -5c146,-37 198,-53 331,-169 82,-71 105,-128 158,-215l1075 -1794c131,-217 233,-486 289,-737 22,-101 36,-172 51,-279 27,-195 26,-384 9,-604 -52,-695 -443,-1431 -960,-1851 -347,-283 -721,-500 -1171,-598 -517,-113 -851,-101 -1419,41 -443,111 -955,437 -1256,767 -128,140 -154,192 -246,307 -30,38 -46,68 -72,112l-186 343 -140 381c-150,594 -164,1210 110,1833 230,524 584,976 1070,1267l783 469c47,28 66,49 109,76 144,90 301,188 449,269 165,90 595,353 685,375 76,18 199,40 301,14z"/>
     <path class="fil1" d="M9858 6799c-55,-219 -65,-313 60,-522 281,-473 985,-313 1092,117 31,121 56,210 24,335 -7,26 -21,74 -30,95l-47 86c-138,221 -386,336 -643,283 -186,-38 -403,-185 -456,-394zm-401 -3c54,215 77,264 204,435 66,88 170,166 260,221 586,351 1336,25 1491,-641 94,-404 -94,-849 -465,-1070 -482,-287 -1080,-134 -1373,350 -99,165 -182,447 -117,705z"/>
    </g>
    <path class="fil2 str0" d="M10252 9394c-258,527 -515,1054 -628,1366 -113,312 -82,410 34,503 115,94 313,185 490,268 177,84 332,160 480,174 148,14 289,-34 374,-115 84,-81 113,-195 106,-308 -7,-113 -49,-225 -104,-307 -55,-82 -124,-134 -175,-168 -52,-34 -86,-50 -16,-193 70,-143 243,-414 416,-684"/>
   </g>
   <circle class="fil0" cx="10429" cy="6602" r="965"/>
   <path class="fil1" d="M10125 9816c-73,108 -180,347 -261,535 -81,189 -136,327 -168,445 -33,118 -45,216 -25,305 20,90 71,171 211,265 141,95 371,201 550,248 180,46 310,33 411,-5 101,-37 174,-99 205,-171 32,-71 23,-152 -14,-235 -37,-82 -103,-166 -162,-251 -59,-85 -111,-172 -124,-269 -12,-98 15,-207 57,-301 43,-94 100,-174 128,-243 27,-68 24,-124 -48,-181 -71,-56 -212,-113 -325,-147 -113,-34 -197,-46 -260,-63 -62,-17 -101,-40 -175,68z"/>
   <path class="fil1" d="M11462 10136c42,94 172,210 337,304 164,93 364,163 509,235 145,71 236,144 333,153 97,9 200,-46 284,-123 83,-78 146,-179 193,-292 47,-113 78,-239 116,-349 37,-110 82,-204 80,-268 -1,-65 -47,-101 -90,-132 -42,-32 -81,-59 -147,-92 -66,-33 -160,-72 -240,-61 -81,11 -148,73 -218,117 -70,44 -143,69 -214,85 -72,16 -142,22 -230,-17 -87,-39 -191,-123 -277,-134 -87,-11 -155,50 -216,118 -61,68 -116,143 -166,216 -50,74 -96,146 -54,240z"/>
  </g>
 </g>
</svg>
