<?xml version="1.0" encoding="UTF-8"?>
<!DOCTYPE svg PUBLIC "-//W3C//DTD SVG 1.1//EN" "http://www.w3.org/Graphics/SVG/1.1/DTD/svg11.dtd">
<!-- Creator: CorelDRAW X8 -->
<svg xmlns="http://www.w3.org/2000/svg" xml:space="preserve" width="215.9mm" height="279.4mm" version="1.1" style="shape-rendering:geometricPrecision; text-rendering:geometricPrecision; image-rendering:optimizeQuality; fill-rule:evenodd; clip-rule:evenodd"
viewBox="0 0 21590 27940"
 xmlns:xlink="http://www.w3.org/1999/xlink">
 <defs>
  <style type="text/css">
   <![CDATA[
    .fil1 {fill:#FCFCFC}
    .fil0 {fill:white}
   ]]>
  </style>
 </defs>
 <g id="Capa_x0020_1">
  <metadata id="CorelCorpID_0Corel-Layer"/>
  <g id="_1278941579952">
   <path class="fil0" d="M9871 8012c-411,0 -786,-222 -969,-492 -39,-58 -81,-121 -108,-186 -82,-202 -109,-291 -109,-538 0,-434 316,-881 710,-1045 77,-32 142,-50 223,-71 347,-87 735,19 1006,256 398,347 538,874 319,1383 -57,131 -147,244 -246,343 -209,209 -504,350 -826,350zm-3314 -1186c0,508 97,938 301,1376l169 321c114,190 185,288 327,457 264,314 510,505 863,715l252 151c40,25 79,46 123,73 45,26 81,46 124,72l367 222c22,16 33,26 57,41 24,14 39,21 63,35 172,104 135,64 28,289 -18,37 -29,67 -46,101 -16,33 -33,65 -49,98l-187 412c-128,288 -313,629 -313,951 0,359 473,530 719,654 38,19 70,36 106,51 74,30 136,63 208,96 318,148 641,204 942,-22 323,-243 297,-736 26,-1074 -24,-32 -41,-58 -74,-83 -31,-24 -57,-53 -94,-63 4,-39 43,-89 63,-124 32,-60 193,-317 202,-357 42,10 532,342 608,393 69,45 137,88 208,135 248,166 640,433 978,433 169,0 299,-141 377,-241 93,-118 168,-239 247,-371 154,-257 367,-522 367,-898 0,-222 -124,-455 -301,-552 -132,-73 -318,-109 -477,-88 -56,7 -68,5 -119,18 -294,76 -348,213 -446,279l-289 -211c-40,-30 -59,-60 -94,-83 65,-122 133,-237 204,-355 72,-119 138,-231 210,-349 314,-521 637,-979 820,-1552 165,-516 195,-1231 44,-1748l-149 -439c-20,-50 -38,-101 -60,-146 -124,-251 -358,-640 -552,-831 -38,-37 -57,-70 -98,-108l-265 -225c-23,-23 -25,-25 -52,-46 -212,-165 -367,-261 -615,-385 -345,-173 -853,-317 -1340,-317 -306,0 -466,24 -753,81 -347,69 -891,249 -1171,495 -39,35 -75,59 -113,93 -39,35 -74,59 -113,93 -105,94 -249,185 -338,289 -216,250 -356,429 -509,737 -133,266 -215,457 -290,759 -56,227 -96,502 -96,748z"/>
   <path class="fil1" d="M12607 14876l0 0zm108 980c-154,-229 -196,-228 -196,-549 0,-76 31,-95 75,-130 190,-151 351,-317 607,-423 88,-37 211,-94 328,-94 -4,42 -19,50 -36,82 -124,225 -164,405 -233,650 -29,102 -155,195 -234,266 -88,78 -191,170 -311,198zm-108 -980c3,-125 181,-367 255,-461 173,-223 447,-426 703,-553 52,-26 203,-91 207,-153 2,-43 -30,-105 -54,-130 -60,-64 -153,-86 -262,-102 -195,-28 -356,111 -489,220 -224,183 -511,571 -617,834 -72,181 -125,342 -125,600 -66,15 -200,139 -369,190 -59,17 -372,-7 -262,254 70,168 208,203 360,128 129,-64 216,-163 329,-239 11,132 198,412 334,490 134,77 327,-33 451,-107 45,-27 82,-55 127,-79 0,315 -57,489 84,838 59,144 150,340 285,420 60,36 125,34 200,17 -1,-49 -22,-74 -39,-108 -154,-303 -173,-657 -147,-1010 3,-35 13,-95 18,-129 12,-91 25,-163 45,-249 50,-228 128,-462 212,-670 25,-60 86,-138 60,-219 -49,-152 -278,-135 -445,-107 -169,28 -316,73 -458,130l-403 195z"/>
   <path class="fil1" d="M5881 16043c1,-70 76,-106 134,-131l580 -244c127,-51 259,-104 387,-161l389 -161c0,53 -1,85 -20,118 -89,155 -420,318 -572,389 -189,89 -428,151 -640,183 -130,19 -162,7 -258,7zm-344 -1550c0,52 51,39 77,18 31,-27 87,-119 117,-158 186,-248 367,-448 646,-589 146,-73 471,-148 647,-71 60,26 87,73 93,152 27,335 -520,762 -687,766 27,-115 215,-457 215,-520 0,-109 -282,-203 -349,-133 -4,4 -30,42 -33,45 -21,35 -34,70 -48,109 -54,151 -105,341 -127,500 -37,266 -53,416 28,685 19,63 114,285 176,285l79 -10c0,-153 -39,-173 -39,-481 44,12 30,33 101,46l281 13c148,0 366,37 504,85 44,15 64,33 104,43 -22,30 -183,72 -227,87 -247,81 -891,336 -1113,455 -73,39 -219,127 -285,186 -129,115 -84,399 419,399 236,0 504,-89 696,-186 362,-183 948,-561 633,-1035 -94,-142 -277,-254 -443,-302l-298 -75c36,-53 138,-140 189,-193 22,-23 24,-32 44,-54 151,-170 346,-485 346,-724 0,-198 -182,-323 -383,-323 -271,0 -490,78 -696,215 -59,39 -108,77 -165,119 -34,26 -43,39 -73,65 -130,109 -429,414 -429,581z"/>
   <path class="fil1" d="M9028 14856c0,-50 0,-16 10,-29 0,52 0,14 -10,29zm0 0l-51 430c-15,135 -23,305 20,434 87,262 341,301 363,242 11,-28 -14,-108 -19,-134 -49,-239 -7,-520 38,-749l72 -409c0,-62 -20,-85 -57,-111 -91,-67 -246,-116 -339,-9 -222,253 -322,702 -432,989l-17 33c-1,-44 -10,-69 -10,-127 2,-351 82,-504 -145,-551 -82,-17 -188,-18 -227,41 -9,35 21,8 20,107 -2,380 81,294 -122,605 -23,34 -28,58 -74,62 -30,-128 -41,-79 -72,-291 -15,-99 -21,-234 -17,-356 6,-210 89,-289 -130,-389 -46,-21 -109,-35 -154,-13 -31,15 -31,6 -40,97 -4,37 -9,90 -15,133 -7,48 0,93 -5,141 -21,181 6,476 77,642 60,143 209,271 338,224 100,-36 238,-280 243,-345l20 0c16,71 32,141 65,200 50,89 124,181 239,174 48,-3 57,-30 76,-62 31,-47 62,-134 82,-193 44,-132 86,-269 132,-407l141 -408z"/>
   <path class="fil1" d="M9891 15572c-1,-57 -20,-133 -8,-234l8 -305c0,-76 -35,-96 -88,-118 -47,-20 -294,-72 -294,29 0,53 38,-10 21,129 -9,72 29,391 43,464 75,378 301,443 366,357 75,-100 151,-375 191,-495 18,-55 154,-548 192,-592 -4,189 -169,797 18,1031 68,85 193,191 316,126 -1,-54 -21,-87 -32,-135 -49,-208 1,-560 39,-750 25,-122 71,-299 71,-429 0,-79 -141,-157 -225,-157 -129,0 -177,22 -269,203 -136,269 -141,290 -242,571l-107 305z"/>
   <path class="fil1" d="M14529 15788c-103,0 -98,-189 -98,-265l13 -448c12,-52 43,-40 74,-220 12,-74 15,-94 50,-146 71,6 97,44 117,99 88,246 -22,980 -156,980zm343 -771l0 147c-9,201 -53,400 -115,509 -84,149 -155,262 -385,262 -75,0 -122,-26 -165,-61 -193,-158 -188,-412 -188,-645 0,-175 62,-402 173,-464 53,-30 57,-25 89,-79 21,-36 37,-63 69,-87 51,-38 273,-105 389,-2 19,17 6,4 24,25 11,13 12,15 20,28 55,90 82,223 89,367z"/>
   <path class="fil1" d="M10852 14670c0,87 -30,230 -30,382 0,228 -7,414 77,620 69,168 288,365 463,116 40,-58 70,-122 104,-190 34,-68 170,-368 170,-428 0,-26 -14,-38 -29,-49 -37,10 -36,30 -51,67 -32,83 -104,256 -145,325 -32,55 -89,190 -157,196 -3,-36 -67,-205 -79,-421 -10,-195 10,-288 10,-471 0,-100 -158,-167 -284,-167 -29,0 -11,8 -49,20z"/>
   <path class="fil1" d="M8077 14366c0,-137 -154,-275 -324,-275 -308,0 -230,287 132,359 75,15 192,24 192,-84z"/>
   <path class="fil1" d="M10773 14209c0,183 510,372 510,157 0,-87 -53,-153 -105,-199 -127,-112 -405,-98 -405,42z"/>
  </g>
 </g>
</svg>
