<?xml version="1.0" standalone="no"?>
<!DOCTYPE svg PUBLIC "-//W3C//DTD SVG 20010904//EN"
 "http://www.w3.org/TR/2001/REC-SVG-20010904/DTD/svg10.dtd">
<svg version="1.0" xmlns="http://www.w3.org/2000/svg"
 width="1300.000000pt" height="1300.000000pt" viewBox="0 0 1300.000000 1300.000000"
 preserveAspectRatio="xMidYMid meet">
<metadata>
Created by potrace 1.15, written by Peter Selinger 2001-2017
</metadata>
<g transform="translate(0.000000,1300.000000) scale(0.100000,-0.100000)"
fill="#000000" stroke="none">
<path d="M405 12988 c-181 -34 -353 -199 -394 -378 -7 -31 -11 -1963 -11
-6116 0 -5554 1 -6075 16 -6125 51 -172 183 -304 354 -353 50 -15 601 -16
6145 -14 l6090 3 58 22 c166 63 294 215 326 388 8 42 11 1819 11 6084 0 6608
5 6093 -60 6222 -42 82 -137 177 -219 219 -129 65 388 60 -6231 59 -3750 -1
-6054 -5 -6085 -11z m6271 -874 c227 -46 506 -180 1299 -622 1021 -569 2410
-1391 2877 -1703 319 -213 464 -357 549 -545 127 -279 154 -753 154 -2699 0
-1215 -5 -1473 -35 -1955 -43 -672 -134 -936 -410 -1192 -152 -142 -390 -302
-1000 -675 -289 -177 -1030 -617 -1092 -649 l-31 -16 33 43 c96 128 385 600
462 754 92 184 124 316 116 484 -9 181 -70 325 -187 441 -123 121 -265 174
-466 173 -239 -1 -441 -81 -606 -240 l-66 -64 -79 57 c-135 96 -314 244 -314
259 0 7 6 20 14 27 7 8 17 24 20 36 4 12 12 22 17 22 5 0 9 6 9 14 0 8 6 21
14 28 7 8 17 24 20 36 4 12 12 22 17 22 5 0 9 6 9 14 0 8 6 21 14 28 7 8 17
24 20 36 4 12 12 22 17 22 5 0 9 6 9 14 0 8 6 21 14 28 7 8 17 24 20 36 4 12
12 22 17 22 5 0 9 6 9 14 0 8 6 21 14 28 7 8 17 24 20 36 4 12 12 22 17 22 5
0 9 6 9 14 0 8 6 21 14 28 7 8 17 24 20 36 4 12 12 22 17 22 5 0 9 6 9 14 0 8
6 21 14 28 7 8 17 24 20 36 4 12 12 22 17 22 5 0 9 6 9 14 0 8 6 21 14 28 7 8
17 24 20 36 4 12 12 22 17 22 5 0 9 6 9 14 0 8 6 21 14 28 7 8 17 24 20 36 4
12 12 22 17 22 5 0 9 6 9 14 0 8 6 21 14 28 7 8 17 24 20 36 4 12 12 22 17 22
5 0 9 6 9 14 0 8 6 21 14 28 7 8 17 24 20 36 4 12 12 22 17 22 5 0 9 6 9 14 0
8 6 21 14 28 7 8 17 24 20 36 4 12 12 22 17 22 5 0 9 6 9 14 0 8 6 21 14 28 7
8 17 24 20 36 4 12 12 22 17 22 5 0 9 6 9 14 0 8 6 21 14 28 7 8 17 24 20 36
4 12 12 22 17 22 5 0 9 6 9 14 0 8 6 21 14 28 7 8 17 24 20 36 4 12 12 22 17
22 5 0 9 6 9 14 0 8 6 21 14 28 7 8 16 24 20 36 4 12 13 28 19 35 7 7 21 31
32 52 12 22 33 63 48 90 30 56 80 165 83 180 1 6 10 28 20 50 10 22 18 42 19
45 5 23 30 87 38 98 5 6 6 12 2 12 -4 0 -2 7 5 15 7 8 9 15 5 15 -4 0 -2 7 5
15 7 8 9 15 5 15 -4 0 -2 7 5 15 7 8 10 15 7 15 -3 0 1 22 8 48 21 70 55 203
60 232 2 14 9 48 15 75 14 58 16 73 24 140 4 28 9 60 11 73 15 63 19 159 19
387 0 255 -4 328 -29 507 -13 97 -18 123 -33 183 -6 22 -13 56 -17 75 -8 48
-9 53 -19 68 -4 7 -5 16 -2 19 3 3 1 12 -5 20 -6 7 -9 13 -6 13 3 0 -1 16 -9
35 -8 19 -11 35 -8 35 4 0 2 6 -3 13 -10 12 -32 72 -38 105 -2 9 -4 18 -5 20
-2 1 -3 5 -5 10 -2 9 -14 41 -25 67 -13 31 -22 60 -18 60 1 0 -7 16 -19 35
-12 19 -22 38 -22 43 0 4 -12 30 -26 57 -14 27 -25 51 -25 52 2 5 -54 123 -62
133 -16 19 -108 185 -108 195 0 6 -3 10 -8 10 -4 0 -16 17 -27 38 -11 20 -22
39 -25 42 -12 11 -80 108 -80 114 0 3 -8 15 -17 25 -33 36 -43 50 -43 60 0 6
-6 14 -12 18 -7 4 -39 40 -71 78 -70 83 -274 293 -330 338 -22 18 -51 42 -66
54 -30 27 -29 25 -106 83 -33 24 -64 48 -70 52 -61 50 -371 245 -432 272 -24
11 -43 23 -43 28 0 5 -4 6 -10 3 -5 -3 -10 -1 -10 5 0 6 -4 9 -8 6 -4 -2 -37
11 -72 30 -35 19 -67 34 -71 34 -3 0 -33 12 -65 27 -33 15 -62 27 -66 29 -5 1
-10 3 -13 4 -3 1 -8 3 -12 5 -5 1 -15 4 -23 8 -8 3 -40 13 -70 22 -30 9 -62
19 -70 21 -8 3 -15 4 -16 2 0 -2 -8 3 -17 11 -10 7 -17 11 -17 8 0 -3 -15 -1
-32 4 -18 6 -41 12 -50 15 -42 10 -64 15 -83 19 -11 2 -31 6 -45 9 -50 10
-256 47 -290 52 -19 2 -48 6 -65 8 -124 18 -422 24 -560 11 -94 -8 -189 -19
-260 -31 -66 -10 -69 -11 -95 -17 -14 -4 -38 -9 -55 -11 -16 -3 -48 -10 -69
-15 -22 -5 -43 -8 -47 -5 -4 2 -10 0 -14 -5 -3 -5 -13 -10 -23 -9 -9 0 -26 -3
-37 -6 -11 -3 -44 -12 -74 -20 -30 -8 -58 -13 -62 -10 -4 2 -10 0 -13 -5 -6
-9 -65 -23 -77 -18 -3 1 -12 -3 -20 -9 -11 -9 -128 -52 -159 -59 -3 -1 -18 -7
-35 -15 -16 -7 -48 -21 -70 -30 -87 -38 -221 -105 -232 -116 -7 -7 -29 -18
-48 -24 -19 -6 -35 -16 -35 -22 0 -6 -3 -9 -6 -5 -3 3 -14 -2 -25 -11 -11 -9
-23 -17 -27 -17 -4 0 -15 -6 -25 -15 -10 -8 -20 -13 -24 -12 -3 2 -9 0 -12 -5
-7 -10 -157 -113 -165 -113 -3 0 -20 -13 -38 -30 -18 -16 -36 -30 -40 -30 -4
0 -24 -15 -44 -34 -21 -19 -42 -33 -46 -30 -4 3 -8 1 -8 -4 0 -5 -30 -34 -66
-63 -71 -59 -247 -234 -316 -315 -24 -28 -54 -65 -68 -81 -14 -16 -38 -48 -54
-71 -16 -23 -33 -42 -37 -42 -5 0 -8 -3 -7 -7 2 -5 -24 -44 -57 -88 -33 -44
-78 -114 -99 -155 -22 -41 -42 -77 -45 -80 -4 -3 -17 -29 -31 -59 -14 -30 -30
-59 -35 -65 -6 -6 -21 -35 -34 -63 -14 -29 -28 -53 -32 -53 -6 0 -26 -43 -34
-75 -2 -5 -9 -23 -16 -40 -7 -16 -13 -32 -14 -35 -4 -18 -29 -87 -34 -95 -3
-5 -6 -14 -7 -20 -1 -5 -8 -23 -15 -40 -7 -16 -13 -32 -14 -35 -7 -29 -30 -88
-38 -97 -5 -7 -7 -13 -4 -13 3 0 -1 -17 -9 -37 -9 -20 -18 -45 -20 -55 -2 -10
-6 -28 -10 -40 -5 -24 -9 -42 -19 -98 -4 -19 -13 -69 -21 -110 -8 -41 -17 -91
-19 -110 -3 -19 -8 -51 -11 -70 -3 -19 -8 -51 -10 -70 -2 -19 -6 -64 -10 -100
-9 -83 -10 -538 -2 -610 15 -116 22 -170 32 -220 3 -19 8 -46 10 -60 2 -14 16
-71 30 -126 14 -56 27 -110 29 -120 1 -11 5 -23 9 -29 4 -8 20 -64 23 -85 0
-3 3 -9 6 -15 5 -8 29 -75 34 -95 3 -9 17 -44 30 -75 8 -16 15 -37 17 -45 2
-8 5 -17 8 -20 3 -3 18 -34 34 -70 33 -77 137 -278 192 -370 21 -36 37 -67 35
-69 -1 -2 1 -7 6 -10 5 -3 34 -42 63 -86 29 -44 82 -117 117 -163 34 -45 63
-84 63 -86 0 -2 27 -34 61 -69 33 -36 59 -67 58 -69 -4 -4 166 -173 190 -191
20 -14 132 -110 168 -144 13 -13 26 -23 28 -23 8 0 174 -120 180 -130 4 -6 10
-8 14 -6 4 3 17 -3 28 -13 11 -10 29 -22 41 -25 12 -4 22 -12 22 -17 0 -5 6
-9 14 -9 8 0 21 -6 28 -14 8 -7 24 -17 36 -20 12 -4 22 -12 22 -17 0 -5 6 -9
14 -9 8 0 21 -6 28 -14 8 -7 24 -17 36 -20 12 -4 22 -12 22 -17 0 -5 6 -9 14
-9 8 0 21 -6 28 -14 8 -7 24 -17 36 -20 12 -4 22 -12 22 -17 0 -5 6 -9 14 -9
8 0 21 -6 28 -14 8 -7 24 -17 36 -20 12 -4 22 -12 22 -17 0 -5 6 -9 14 -9 8 0
21 -6 28 -14 8 -7 24 -17 36 -20 12 -4 22 -12 22 -17 0 -5 6 -9 14 -9 8 0 21
-6 28 -14 8 -7 24 -17 36 -20 12 -4 22 -12 22 -17 0 -5 6 -9 14 -9 8 0 21 -6
28 -14 8 -7 24 -17 36 -20 12 -4 22 -12 22 -17 0 -5 6 -9 14 -9 8 0 21 -6 28
-14 8 -7 24 -17 36 -20 12 -4 22 -12 22 -17 0 -5 6 -9 13 -9 6 0 30 -13 53
-28 23 -15 61 -40 85 -56 24 -16 46 -33 47 -37 2 -5 9 -9 16 -9 7 0 22 -9 34
-20 12 -12 22 -18 22 -14 0 4 8 0 18 -8 9 -8 36 -26 60 -38 23 -13 42 -27 42
-32 0 -4 7 -8 15 -8 8 0 15 -6 15 -13 0 -7 -52 -119 -115 -249 -349 -724 -507
-1105 -555 -1339 -31 -152 -24 -252 26 -353 14 -27 23 -50 21 -52 -7 -7 -822
457 -1282 729 -953 564 -1461 899 -1682 1111 -119 113 -181 196 -244 322 -154
312 -183 760 -183 2804 0 1953 23 2332 165 2629 102 215 284 387 704 666 669
443 2191 1333 3205 1872 441 235 671 333 860 366 62 11 246 6 316 -9z m-606
-3834 c482 -51 870 -384 998 -858 23 -88 26 -114 26 -282 -1 -169 -3 -193 -28
-285 -85 -316 -297 -580 -582 -727 -185 -96 -356 -133 -574 -125 -430 16 -806
267 -990 660 -108 229 -134 513 -70 761 118 463 513 805 986 855 112 12 128
12 234 1z m1083 -5698 c817 -545 1144 -726 1366 -757 l54 -7 -69 -40 c-169
-99 -788 -440 -1005 -554 -658 -347 -890 -405 -1234 -311 l-80 22 100 6 c199
13 351 75 469 192 131 130 183 276 173 486 -6 139 -30 231 -93 356 -54 109
-124 198 -209 268 -36 29 -65 59 -65 67 0 19 266 479 278 480 1 0 143 -94 315
-208z"/>
</g>
</svg>
